<?xml version="1.0" encoding="utf-8"?>
<!-- Generator: Adobe Illustrator 16.0.4, SVG Export Plug-In . SVG Version: 6.00 Build 0)  -->
<!DOCTYPE svg PUBLIC "-//W3C//DTD SVG 1.1//EN" "http://www.w3.org/Graphics/SVG/1.1/DTD/svg11.dtd">
<svg version="1.1" id="Layer_1" xmlns="http://www.w3.org/2000/svg" xmlns:xlink="http://www.w3.org/1999/xlink" x="0px" y="0px"
	 width="34.3px" height="34px" viewBox="0 0 34.3 34" style="enable-background:new 0 0 34.3 34;" xml:space="preserve">
<path style="fill:#E1E1E1;" d="M10.7,0h8.8v0.2c0,1-1.8,1.2-3,1.4c-0.4,0-1.2,0.1-1.5,0.2c2.2,1.2,2.6,3.1,2.6,5.9
	c0,3.2-1.2,4.9-2.6,6.1c-0.8,0.8-1.5,1.3-1.5,2.1s0.9,1.5,1.9,2.5c1.7,1.5,4,3.5,4,6.9c0,3.6-1.5,6.1-4.4,7.5
	c-2.3,1.2-4.7,1.3-5.7,1.3c-0.2,0-0.2-0.1-0.3-0.1C9,33.9,9,34,8.9,34C7.4,34,0,33.6,0,26.8c0-6.6,8-7.2,10.5-7.2h0.1
	c-1.4-1.9-1.1-3.9-1.1-3.9c-0.1,0-0.3,0-0.5,0c-0.9,0-2.7-0.2-4.2-1.2c-1.9-1.2-2.8-3.2-2.8-6.2C1.8,0.3,10.6,0,10.7,0z M10.4,21.4
	c-0.2,0-0.4,0-0.6,0c-1.7,0.1-3.2,0.8-4.4,1.8c-1.1,1-1.7,2.3-1.6,3.6c0.2,2.7,3.1,4.2,6.6,4c3.4-0.2,5.8-2.2,5.6-4.9
	C15.8,23.2,13.7,21.4,10.4,21.4z M9,2.4c-0.2,0-0.5,0-0.8,0.1C7.3,2.8,6.5,3.6,6,4.9C5.7,6.1,5.6,7.4,6,9c0.7,2.6,2.6,4.6,4.5,4.6
	c0.2,0,0.5,0,0.7-0.1c2.1-0.6,3.4-3.8,2.5-6.9C12.8,3.3,11.3,2.4,9,2.4z M34.3,13.3v3.6h-5.7v5.8h-3.6v-5.8h-5.7v-3.6h5.7V7.5h3.6
	v5.8H34.3z"/>
</svg>
