<?xml version="1.0" encoding="utf-8"?>
<!-- Generator: Adobe Illustrator 16.0.4, SVG Export Plug-In . SVG Version: 6.00 Build 0)  -->
<!DOCTYPE svg PUBLIC "-//W3C//DTD SVG 1.1//EN" "http://www.w3.org/Graphics/SVG/1.1/DTD/svg11.dtd">
<svg version="1.1" id="Layer_1" xmlns="http://www.w3.org/2000/svg" xmlns:xlink="http://www.w3.org/1999/xlink" x="0px" y="0px"
	 width="38.6px" height="31.8px" viewBox="0 0 38.6 31.8" style="enable-background:new 0 0 38.6 31.8;" xml:space="preserve">
<path style="fill:#E1E1E1;" d="M34.6,7.9c0,0.3,0,0.7,0,1c0,10.7-8,22.8-22.5,22.8c-4.5,0-8.6-1.3-12.2-3.6c0.6,0.1,1.3,0.1,1.9,0.1
	c3.7,0,7.1-1.3,9.8-3.4c-3.4-0.1-6.4-2.4-7.4-5.6c0.4,0.2,0.9,0.2,1.4,0.2c0.8,0,1.4-0.1,2.1-0.3c-3.6-0.8-6.3-4-6.3-7.9v-0.1
	c1,0.6,2.3,0.9,3.5,1C3,10.7,1.6,8.3,1.6,5.5c0-1.5,0.4-2.8,1.1-4C6.6,6.3,12.4,9.5,19,9.8c-0.2-0.5-0.3-1.2-0.3-1.8
	c0-4.4,3.5-8,8-8C29,0,31,0.9,32.4,2.5c1.8-0.3,3.5-1,5-1.9C36.9,2.5,35.6,4,34,5c1.6-0.3,3.1-0.7,4.5-1.3
	C37.5,5.4,36.1,6.7,34.6,7.9z"/>
</svg>
